<?xml version="1.0" encoding="UTF-8" standalone="no"?>
<svg
   version="1.0"
   width="600"
   height="611.95996"
   id="svg2198"
   sodipodi:docname="Nesqual_Starbird_2.svg"
   inkscape:export-filename="Nesqual_Starbird_2-plain.svg"
   inkscape:export-xdpi="300"
   inkscape:export-ydpi="300"
   xml:space="preserve"
   inkscape:version="1.4.3 (0d15f75, 2025-12-25)"
   xmlns:inkscape="http://www.inkscape.org/namespaces/inkscape"
   xmlns:sodipodi="http://sodipodi.sourceforge.net/DTD/sodipodi-0.dtd"
   xmlns:xlink="http://www.w3.org/1999/xlink"
   xmlns="http://www.w3.org/2000/svg"
   xmlns:svg="http://www.w3.org/2000/svg"><sodipodi:namedview
     id="namedview1"
     pagecolor="#505050"
     bordercolor="#eeeeee"
     borderopacity="1"
     inkscape:showpageshadow="0"
     inkscape:pageopacity="0"
     inkscape:pagecheckerboard="0"
     inkscape:deskcolor="#505050"
     inkscape:zoom="1.9696241"
     inkscape:cx="118.29668"
     inkscape:cy="317.57328"
     inkscape:window-width="2560"
     inkscape:window-height="1440"
     inkscape:window-x="0"
     inkscape:window-y="0"
     inkscape:window-maximized="0"
     inkscape:current-layer="layer5"><inkscape:page
       x="0"
       y="0"
       width="600"
       height="611.95996"
       id="page2"
       margin="0"
       bleed="0" /></sodipodi:namedview><defs
     id="defs2200"><linearGradient
       id="linearGradient1"
       inkscape:collect="always"><stop
         style="stop-color:#ff9f36;stop-opacity:1;"
         offset="0"
         id="stop1" /><stop
         style="stop-color:#2a85ff;stop-opacity:1;"
         offset="0.95357144"
         id="stop2" /></linearGradient><linearGradient
       inkscape:collect="always"
       xlink:href="#linearGradient1"
       id="linearGradient2"
       x1="350.55685"
       y1="566.07233"
       x2="249.44319"
       y2="45.887604"
       gradientUnits="userSpaceOnUse"
       gradientTransform="rotate(42.038138,300,305.97998)" /></defs><g
     inkscape:groupmode="layer"
     id="layer5"
     inkscape:label="Color Work"
     inkscape:highlight-color="#44f321"><g
       id="g3"
       inkscape:label="Color 2 - Nesqual"
       style="display:inline;opacity:1"><rect
         style="display:none;opacity:1;fill:#050515;fill-opacity:1;stroke:none;stroke-width:6;stroke-miterlimit:1;stroke-dasharray:none;stroke-opacity:1"
         id="rect2"
         width="600"
         height="611.95996"
         x="0"
         y="0" /><path
         id="path3"
         style="display:inline;opacity:1;fill:url(#linearGradient2);stroke:none;stroke-width:0.5;stroke-miterlimit:1;stroke-dasharray:none;stroke-opacity:1"
         inkscape:label="Trace 1.2"
         d="m 492.88277,92.048503 -72.82053,7.717369 c -2.86916,16.164378 -3.31646,20.890638 -12.34291,41.500998 -5.16207,11.34517 -10.39551,18.10548 -16.85635,26.59439 1.49603,-10.92037 3.21083,-19.20164 2.18205,-30.95469 -0.8038,-10.86857 -4.2636,-20.80521 -7.43188,-33.5453 l -46.526,4.87993 c 9.39829,19.68999 10.58445,31.23962 9.85586,48.24059 -1.09698,28.36649 -3.25695,63.38975 -46.67283,91.18005 -12.18188,6.18165 -24.31044,12.54841 -36.80145,18.08146 l -43.6361,18.69093 c -6.98359,-11.39193 -18.5198,-30.03844 -18.5198,-30.03844 -42.45734,13.51033 -49.87699,-38.49495 -17.33618,-45.57036 -3.36941,-29.16794 2.05237,-59.77288 18.29075,-85.14932 C 248.40314,55.494651 332.83736,38.465805 361.83662,35.871657 322.20039,28.051276 212.4123,16.55802 115.2246,115.23679 67.19994,168.15643 42.432144,236.57661 44.051891,304.79971 c 1.339522,56.39766 20.711979,112.6622 59.889049,159.92352 -0.14676,6.64122 -0.0456,17.65432 2.14391,27.8046 1.98522,9.59804 1.97369,9.50987 2.49778,18.23311 -0.18199,5.78558 -1.4712,9.14529 -1.4712,9.14529 l 0.0116,0.0104 c 0,0 3.20873,-1.62905 8.94463,-2.40717 8.73074,-0.37899 8.64186,-0.38136 18.39353,0.60271 10.32205,1.13028 21.28678,0.0943 27.87739,-0.7371 51.0522,34.0903 109.01561,47.55255 165.25036,43.06444 68.02598,-5.42981 133.52467,-37.12661 181.20537,-90.35637 88.12164,-106.85282 65.35914,-214.8685 53.48989,-253.48598 0.41256,29.11213 -7.81138,114.85294 -71.07376,165.78963 -23.56507,18.77063 -53.44702,27.32202 -82.80695,26.98086 -3.67928,33.09727 -56.17259,31.0844 -47.11618,-12.54054 0,0 -19.73754,-9.55022 -31.78938,-15.32082 l 14.08769,-45.33206 c 4.21439,-12.99535 9.29543,-25.71622 14.18685,-38.47103 23.16119,-46.05213 57.77452,-51.81512 85.87631,-55.83379 16.83499,-2.47927 28.44537,-2.49142 49.00016,4.82459 l 0.0522,-46.78119 c -12.99903,-1.83653 -23.23968,-4.25235 -34.13317,-3.93017 -11.79646,0.18968 -19.85653,2.74999 -30.56419,5.36507 7.77679,-7.30244 13.96088,-13.20564 24.71272,-19.51101 19.56874,-11.10533 24.22361,-12.03801 40.00556,-16.56008 z m -29.41642,32.626547 -2.8457,19.09041 c -9.23073,3.4386 -17.67169,8.34334 -26.22283,13.15028 3.89876,-9.00158 7.90616,-17.90366 10.37375,-27.43997 z M 238.52137,62.58641 c -85.54722,50.24172 -78.55591,101.33069 -80.39085,134.34987 -12.78521,8.07296 -17.85515,17.8298 -18.84273,32.09052 L 80.833373,244.50302 C 100.00651,151.76013 153.63878,96.837325 238.52137,62.58641 Z m 309.91738,279.42463 c -25.30776,87.96418 -74.4022,146.97834 -164.67111,175.62056 l 9.36083,-59.73948 c 14.08265,-2.45408 23.26416,-8.5039 29.97451,-22.054 32.65349,-5.23287 84.19118,-3.5515 125.33577,-93.82708 z m -209.9268,-78.7457 c -24.60327,56.68953 -31.22708,88.66049 -37.8536,106.6895 -0.88329,1.12214 -30.37288,-12.11301 -53.43252,-5.4416 4.25593,-23.62504 -11.95201,-51.59122 -10.92702,-52.5856 17.2767,-8.46544 48.35407,-18.33335 102.21314,-48.6623 z m -155.94095,15.46288 10.10676,24.35711 c -36.39438,20.24438 -75.61268,58.64284 -85.19967,97.64441 C 81.415001,355.03378 76.69732,312.06939 80.364892,275.3801 L 145.60484,257.383 c 5.46887,14.71176 24.94528,23.1345 36.96616,21.34522 z m 156.65442,141.24121 c -0.53911,12.14135 9.84871,30.6445 25.04632,34.56585 l -11.16795,66.74895 c -36.11487,7.43449 -79.33672,7.17611 -127.47849,-14.03177 37.80388,-13.56094 71.94981,-56.53271 88.33002,-94.82205 z M 206.95517,325.88798 c 15.14374,23.18009 16.68719,41.95849 -15.70854,79.75649 l -18.8332,20.88841 -39.90852,44.09444 c -4.51458,-18.60112 -3.71396,-32.73095 -3.76474,-38.47014 2.99516,-54.17171 62.42728,-96.06502 78.215,-106.2692 z m 82.84577,74.69459 c -8.52033,16.75653 -44.05627,80.19486 -97.62961,88.76478 -5.71378,0.54181 -19.68553,2.79642 -38.65325,0.22566 l 39.74025,-44.24615 18.8332,-20.88842 c 34.25279,-36.12366 53.09021,-36.52646 77.70941,-23.85587 z"
         sodipodi:nodetypes="cccccccccccccccccccccccccccccccccccccccccccccccccccccccccccccccccccccccccccccccccccccc" /></g></g></svg>
