<?xml version="1.0" encoding="UTF-8" standalone="no"?>
<svg
   width="348pt"
   height="336pt"
   viewBox="0 0 348 336"
   version="1.1"
   id="svg1"
   xmlns:xlink="http://www.w3.org/1999/xlink"
   xmlns="http://www.w3.org/2000/svg"
   xmlns:svg="http://www.w3.org/2000/svg">
  <defs
     id="defs1">
    <linearGradient
       id="linearGradient1">
      <stop
         style="stop-color:#2a85ff;stop-opacity:1;"
         offset="0.09726444"
         id="stop1" />
      <stop
         style="stop-color:#ff9f36;stop-opacity:1;"
         offset="1"
         id="stop2" />
    </linearGradient>
    <linearGradient
       xlink:href="#linearGradient1"
       id="linearGradient2"
       x1="257.39371"
       y1="56.236946"
       x2="141.52011"
       y2="329.21802"
       gradientUnits="userSpaceOnUse"
       spreadMethod="pad" />
  </defs>
  <g
     id="#ffffffff"
     transform="matrix(0.94130156,0,0,0.95038995,13.311477,8.9600004)"
     style="display:none">
    <rect
       style="display:inline;fill:#050515;fill-opacity:1;stroke-width:0.75"
       id="rect1"
       width="369.70087"
       height="353.53909"
       x="-14.141564"
       y="-9.4277096" />
  </g>
  <g
     id="#ff9f36ff"
     transform="translate(-24.916089,-22.222458)"
     style="display:inline">
    <path
       fill="#ff9f36"
       opacity="1"
       d="m 106.75739,81.160372 c 26.94917,-20.928248 61.16439,-32.475456 95.31137,-31.605578 17.13319,-0.221733 34.2408,3.104272 50.34208,8.877876 -13.97775,-2.677861 -28.39897,-3.667134 -42.50464,-1.415684 -24.83418,3.087215 -48.0821,15.726035 -64.77182,34.27491 3.28336,-0.571391 6.24265,-2.123527 9.2787,-3.394231 10.50676,-4.554069 21.71284,-7.675397 33.14918,-8.587916 11.43635,-1.236592 22.95797,-0.247319 34.33461,1.117196 -8.34912,1.611834 -16.86029,2.643748 -24.89387,5.551871 -19.93897,6.41322 -37.80559,19.205544 -49.98389,36.279044 -7.99094,11.41928 -13.68779,24.82564 -14.28476,38.88015 -0.20468,9.5516 3.01899,20.1607 11.48751,25.5079 6.43027,3.84622 14.35299,5.42394 21.7299,3.90592 8.9461,-1.42421 17.41462,-5.00606 25.25205,-9.45779 6.66907,-3.94857 13.12493,-8.42588 18.50624,-14.04598 2.19175,-1.86768 1.46685,-4.8952 1.51802,-7.41102 -1.22806,-0.19615 -2.54141,-0.63962 -3.65008,0.17056 -6.60937,3.6245 -13.56839,6.60937 -20.74915,8.90346 -11.58985,3.57333 -24.41629,4.8952 -35.9635,0.452 7.41102,0.9978 15.09495,0.17909 21.85782,-3.15544 11.71778,-5.62863 21.32055,-14.59178 31.52883,-22.4548 16.07569,-12.29769 33.28563,-23.16264 51.49338,-32.03199 14.89027,-6.93344 30.65895,-13.193154 47.24633,-13.97775 -9.05697,7.9483 -18.62563,15.35932 -27.09415,23.97282 -8.40029,8.11034 -15.90513,17.08202 -23.23087,26.16458 -2.03824,2.6608 -5.18515,4.01679 -7.86301,5.88447 -12.8435,8.68172 -23.44408,20.76621 -30.05345,34.81219 -5.40689,11.40222 -8.40029,24.23719 -6.82257,36.86748 1.12572,7.93125 5.04871,15.98189 12.10154,20.22041 7.47072,4.61377 16.82618,4.67346 25.18383,2.95076 19.00087,-4.31528 35.57973,-16.73236 46.93932,-32.339 11.83716,-15.93924 17.67899,-36.0232 16.8944,-55.80866 -0.29849,-4.34087 -0.91252,-8.66467 -0.96369,-13.02259 4.63082,11.28283 8.58791,23.0006 9.64541,35.23007 1.15984,8.27237 0.43494,16.65561 -0.9381,24.8427 -1.10867,6.36205 -3.28336,12.45973 -4.51143,18.78766 11.76041,-13.12492 19.7343,-29.59291 22.7874,-46.95637 3.30042,-20.42508 0.3326,-41.78827 -8.22973,-60.61005 12.03332,18.54888 18.72797,40.30436 20.68093,62.256 0.28996,7.37691 0.28996,14.77087 0,22.13925 -1.68006,19.78547 -7.48778,39.23834 -17.18436,56.59326 -15.12906,27.41822 -39.38331,49.60012 -67.87609,62.55448 -45.34454,20.98795 -101.17879,18.13953 -143.63226,-8.50263 C 96.395608,299.84948 77.787036,279.90198 65.881643,256.43232 57.370481,239.75112 52.355888,221.31312 51.178994,202.61926 v -18.14805 c 2.277034,-40.4067 23.674335,-78.72398 55.578396,-103.310838 m 128.57995,46.529958 c 3.18103,-0.46052 6.25119,-1.48391 9.25312,-2.6011 2.88254,-1.02339 5.35572,-3.43688 5.97828,-6.49851 -5.15104,2.89107 -10.37031,5.74802 -15.2314,9.09961 z"
       id="path1"
       style="display:inline;fill:url(#linearGradient2);fill-opacity:1;stroke-width:0.852822" />
  </g>
</svg>
